HIERARCHY
ROOT Hips
{
	OFFSET 0.000000 8.830580 0.000000
	CHANNELS 6 Xposition Yposition Zposition Zrotation Yrotation Xrotation 
	JOINT Spine
	{
		OFFSET 0.000000 0.010000 0.000000
		CHANNELS 3 Zrotation Yrotation Xrotation
		JOINT Spine1
		{
			OFFSET 0.000000 2.459130 0.000000
			CHANNELS 3 Zrotation Yrotation Xrotation
			JOINT Neck
			{
				OFFSET 0.000000 2.484630 0.000000
				CHANNELS 3 Zrotation Yrotation Xrotation
				JOINT Head_virtual
				{
					OFFSET 0.000000 0.000000 0.000000
					CHANNELS 3 Zrotation Yrotation Xrotation
					JOINT Head
					{
						OFFSET 0.000000 0.927525 0.000000
						CHANNELS 3 Zrotation Yrotation Xrotation
						End Site
						{
							OFFSET 0.000000 0.000000 0.000000
						}
					}
				}
				JOINT LeftUpArm_virtual
				{
					OFFSET 0.000000 0.000000 0.000000
					CHANNELS 3 Zrotation Yrotation Xrotation
					JOINT LeftUpArm
					{
						OFFSET 1.248820 0.000000 0.000000
						CHANNELS 3 Zrotation Yrotation Xrotation
						JOINT LeftForeArm
						{
							OFFSET 2.597580 0.000000 0.000000
							CHANNELS 3 Zrotation Yrotation Xrotation
							JOINT LeftHand
							{
								OFFSET 2.455420 0.000000 0.000000
								CHANNELS 3 Zrotation Yrotation Xrotation
								End Site
								{
									OFFSET 0.000000 0.000000 0.000000
								}
							}
						}
					}
				}
				JOINT RightUpArm_virtual
				{
					OFFSET -0.000000 -0.000000 -0.000000
					CHANNELS 3 Zrotation Yrotation Xrotation
					JOINT RightUpArm
					{
						OFFSET -1.248820 -0.000000 -0.000000
						CHANNELS 3 Zrotation Yrotation Xrotation
						JOINT RightForeArm
						{
							OFFSET -2.597580 -0.000000 -0.000000
							CHANNELS 3 Zrotation Yrotation Xrotation
							JOINT RightHand
							{
								OFFSET -2.455420 -0.000000 -0.000000
								CHANNELS 3 Zrotation Yrotation Xrotation
								End Site
								{
									OFFSET 0.000000 0.000000 0.000000
								}
							}
						}
					}
				}
			}
		}
	}
	JOINT LeftUpLeg
	{
		OFFSET 1.271939 0.000000 0.000000
		CHANNELS 3 Zrotation Yrotation Xrotation
		JOINT LeftLowLeg
		{
			OFFSET 0.000000 -4.342910 0.000000
			CHANNELS 3 Zrotation Yrotation Xrotation
			JOINT LeftFoot
			{
				OFFSET 0.000000 -4.487670 0.000000
				CHANNELS 3 Zrotation Yrotation Xrotation
				JOINT LeftToeBase
				{
					OFFSET 0.000000 0.000000 1.515070
					CHANNELS 3 Zrotation Yrotation Xrotation
					End Site
					{
						OFFSET 0.000000 0.000000 0.000000
					}
				}
			}
		}
	}
	JOINT RightUpLeg
	{
		OFFSET -1.271939 0.000000 0.000000
		CHANNELS 3 Zrotation Yrotation Xrotation
		JOINT RightLowLeg
		{
			OFFSET 0.000000 -4.342910 0.000000
			CHANNELS 3 Zrotation Yrotation Xrotation
			JOINT RightFoot
			{
				OFFSET 0.000000 -4.487670 0.000000
				CHANNELS 3 Zrotation Yrotation Xrotation
				JOINT RightToeBase
				{
					OFFSET 0.000000 0.000000 1.515070
					CHANNELS 3 Zrotation Yrotation Xrotation
					End Site
					{
						OFFSET 0.000000 0.000000 0.000000
					}
				}
			}
		}
	}
}
MOTION
Frames: 5
Frame Time: 0.041667
-17.591473 0.950957 37.107825 -170.941782 6.319288 148.415024 11.824660 4.717851 30.530221 10.033139 -17.904749 34.588448 0.000000 0.000000 0.000000 -64.976752 31.106030 -46.335091 -16.685045 -55.468788 -88.012540 -19.629900 -6.856950 6.263100 70.492401 -69.533203 -24.773010 0.000000 -88.906502 0.000000 23.875500 9.252490 11.384200 25.003500 13.453200 10.190300 15.576000 57.666698 4.829987 0.000000 54.172600 0.000000 5.363910 -11.973500 27.091600 -36.777026 -12.329248 -90.314589 0.000000 0.000000 117.948997 14.248144 25.260656 13.369756 0.000000 0.000000 -13.448670 13.458964 3.086936 -46.661432 0.000000 0.000000 -5.909610 25.686228 -21.838124 23.775584 0.000000 0.000000 -22.910250 
-17.591559 0.951119 37.107352 -170.936842 6.314807 148.421794 11.807900 4.750320 30.521259 10.053483 -17.899637 34.606106 0.000000 0.000000 0.000000 -65.045908 31.032225 -46.378643 -16.642172 -55.513303 -87.998998 -19.692801 -6.846180 6.361910 70.814598 -69.423897 -25.058990 0.000000 -88.893700 0.000000 23.731199 9.179820 11.333500 25.004400 13.417600 10.197400 15.485000 57.690498 4.816986 0.000000 54.171600 0.000000 5.261140 -11.933800 27.056200 -36.797158 -12.302986 -90.304734 0.000000 0.000000 117.936996 14.356988 25.247231 13.388588 0.000000 0.000000 -13.478930 13.424727 3.114023 -46.681144 0.000000 0.000000 -5.885900 25.703195 -21.851690 23.742607 0.000000 0.000000 -22.920620 
-17.591438 0.951320 37.107071 -170.925109 6.301326 148.439376 11.796479 4.785404 30.502588 10.064517 -17.892948 34.653708 0.000000 0.000000 0.000000 -65.111196 30.951726 -46.511447 -16.774281 -55.539386 -87.817603 -19.778799 -6.811200 6.538590 71.354202 -69.211800 -25.500000 0.000000 -88.881104 0.000000 23.748800 9.301420 11.388600 25.017099 13.369700 10.191600 15.346300 57.737400 4.761993 0.000000 54.168800 0.000000 5.209890 -11.921600 26.990101 -36.808786 -12.292494 -90.308392 0.000000 0.000000 117.941002 14.391454 25.223063 13.394910 0.000000 0.000000 -13.526650 13.376338 3.147476 -46.721407 0.000000 0.000000 -5.840240 25.724662 -21.857088 23.678533 0.000000 0.000000 -22.908950 
-17.590965 0.950823 37.105018 -170.936625 6.229205 148.409822 11.757536 4.800460 30.465756 10.047366 -17.934439 34.732297 0.000000 0.000000 0.000000 -65.093963 30.926839 -46.629890 -16.945668 -55.541319 -87.617547 -19.780300 -6.782810 6.642210 71.632797 -69.111702 -25.790009 0.000000 -88.839104 0.000000 24.051399 9.662020 10.476000 25.020599 13.353100 10.197300 15.264900 57.770500 4.700989 0.000000 54.150002 0.000000 5.181350 -11.913900 26.951200 -36.881903 -12.301382 -90.260623 0.000000 0.000000 117.950996 14.399785 25.223879 13.392434 0.000000 0.000000 -13.466900 12.831970 3.509928 -46.914687 0.000000 0.000000 -5.441630 26.286280 -22.214349 22.894177 0.000000 0.000000 -22.775030 
-17.591417 0.951000 37.103939 -170.918970 6.194238 148.506849 11.712316 4.826633 30.330902 10.096387 -17.941624 34.800446 0.000000 0.000000 0.000000 -65.114914 30.869992 -46.696158 -17.033901 -55.557680 -87.488950 -19.803101 -6.748890 6.727420 71.852097 -69.023300 -26.123993 0.000000 -88.737099 0.000000 23.645901 9.574710 10.350400 24.994801 13.360900 10.192300 15.142400 57.781300 4.606995 0.000000 54.138000 0.000000 5.187030 -11.944000 26.776699 -36.893735 -12.374729 -90.316007 0.000000 0.000000 117.963997 14.400319 25.189365 13.390489 0.000000 0.000000 -13.529440 12.530305 3.727472 -47.101479 0.000000 0.000000 -5.265440 26.646483 -22.393070 22.471034 0.000000 0.000000 -22.739820 
